<?xml version="1.0" encoding="utf-8"?>
<!-- Generator: Adobe Illustrator 24.1.3, SVG Export Plug-In . SVG Version: 6.00 Build 0)  -->
<svg version="1.1" id="Layer_1" xmlns="http://www.w3.org/2000/svg" xmlns:xlink="http://www.w3.org/1999/xlink" x="0px" y="0px"
	 viewBox="0 0 1175.94 612" style="enable-background:new 0 0 1175.94 612;" xml:space="preserve">
<style type="text/css">
	.st0{fill:#00B7BD;}
	.st1{fill:#00A9E0;}
	.st2{fill:#0069B1;}
	.st3{fill:#FFFFFF;}
</style>
<g>
	<path class="st0" d="M269.11,198.08c-4.68,0.2-9.28,0.71-13.78,1.48c-11.1,55.24-42.18,103.32-85.38,136.35
		c1.28,4.47,2.83,8.82,4.66,13.03C223.13,313.15,257.84,259.67,269.11,198.08z"/>
	<path class="st0" d="M240.88,203.08c-5.27,1.68-10.36,3.76-15.24,6.2c-10.57,37.41-31.66,70.41-59.89,95.63
		c0,0.37-0.03,0.74-0.03,1.11c0,5.21,0.39,10.32,1.1,15.33C203.32,291.71,229.92,250.37,240.88,203.08z"/>
	<path class="st0" d="M167.9,284.33c17.42-18.29,31.24-40.03,40.23-64.12C187.84,235.77,173.2,258.34,167.9,284.33z"/>
</g>
<g>
	<path class="st1" d="M372.96,348.95c1.82-4.21,3.37-8.56,4.66-13.03c-43.2-33.03-74.28-81.11-85.38-136.35
		c-4.51-0.78-9.1-1.28-13.78-1.48C289.72,259.67,324.43,313.15,372.96,348.95z"/>
	<path class="st1" d="M339.43,220.21c8.99,24.09,22.81,45.83,40.23,64.12C374.36,258.34,359.73,235.77,339.43,220.21z"/>
	<path class="st1" d="M380.74,321.36c0.71-5.01,1.1-10.12,1.1-15.33c0-0.37-0.02-0.74-0.03-1.11
		c-28.23-25.22-49.33-58.22-59.89-95.63c-4.88-2.43-9.97-4.52-15.24-6.2C317.65,250.37,344.24,291.71,380.74,321.36z"/>
</g>
<g>
	<g>
		<path class="st2" d="M309.5,406.96c-14.64,0-27.67-1.92-35.72-8.05c-8.05,6.13-21.08,8.05-35.72,8.05h-2.86
			c11.99,4.58,24.98,7.12,38.58,7.12s26.6-2.54,38.58-7.12H309.5z"/>
	</g>
	<g>
		<path class="st2" d="M360.08,357.48h-19.23c-4.32,0-8.5-0.44-12.45-1.43c-9.36-2.49-17.54-8.16-23.13-16.01
			c-4.58,6.42-10.88,11.37-18.14,14.33h-0.06c-5.41,2.21-11.38,3.1-17.65,3.11h-21.3v0h-69.39c2.39,4.41,5.1,8.64,8.06,12.65h70.07
			c14.64,0,27.67-0.03,35.72-10.4c8.05,10.37,21.08,10.4,35.72,10.4h32.44c2.97-4.02,5.67-8.24,8.06-12.65h-5.61L360.08,357.48z"/>
	</g>
	<g>
		<path class="st2" d="M328.32,382.78c-14.64,0-27.67-2.29-35.72-10.23c-8.05,7.93-21.08,10.23-35.72,10.23h-59.14
			c4.71,4.67,9.84,8.9,15.34,12.64h24.96c14.64,0,27.67-1.77,35.72-7.42c8.05,5.65,21.08,7.42,35.72,7.42h25.01
			c5.5-3.74,10.63-7.98,15.34-12.64H328.32z"/>
	</g>
</g>
<g>
	<polygon class="st3" points="440.01,261.52 452.57,224.72 465.91,261.52 471.1,261.52 484.95,216.65 479.43,216.65 468.28,254.15 
		454.88,216.65 450.14,216.65 437.44,254.21 425.39,216.65 419.88,216.65 434.75,261.52 	"/>
	<path class="st3" d="M512.03,262.74c14.23,0,23.47-10.26,23.47-23.46c0-13.85-10.07-23.34-23.53-23.34
		c-13.4,0-23.59,9.42-23.59,23.34C488.37,252.87,498.12,262.74,512.03,262.74z M511.9,220.88c10.77,0,18.08,7.63,18.08,18.4
		c0,10.32-6.79,18.46-17.95,18.46c-10.96,0-18.14-7.76-18.14-18.46C493.89,228.31,501.32,220.88,511.9,220.88z"/>
	<path class="st3" d="M566.39,262.74c14.23,0,23.46-10.26,23.46-23.46c0-13.85-10.06-23.34-23.53-23.34
		c-13.4,0-23.59,9.42-23.59,23.34C542.73,252.87,552.48,262.74,566.39,262.74z M566.26,220.88c10.77,0,18.08,7.63,18.08,18.4
		c0,10.32-6.8,18.46-17.95,18.46c-10.96,0-18.15-7.76-18.15-18.46C548.24,228.31,555.68,220.88,566.26,220.88z"/>
	<path class="st3" d="M637.68,238.83c0-16.28-12.82-22.25-28.4-22.25c-2.18,0-8.33,0-10,0.06v44.88c2.37,0.13,8.91,0.13,10.13,0.13
		C626.78,261.65,637.68,253.83,637.68,238.83z M604.66,221.58c1.35-0.06,4.36,0,5.38,0c11.22,0,22.18,4.1,22.18,17.37
		c0,11.99-8.85,17.5-21.93,17.7c-0.96,0-4.74,0-5.64-0.07V221.58z"/>
	<path class="st3" d="M663.47,257.42c-6.6,0.07-12.76-2.56-16.48-4.87l-2.05,4.55c3.78,2.31,10.77,5.45,18.91,5.32
		c9.55-0.13,17.25-4.68,17.18-13.59c-0.06-8.27-6.79-10.9-15.77-13.01c-7.05-1.6-13.08-2.44-13.14-7.57
		c-0.13-4.74,4.68-7.31,10.96-7.31c5.06,0,9.74,1.73,13.01,3.33l1.67-4.74c-3.2-1.54-8.52-3.53-14.68-3.53
		c-8.59,0-16.67,3.85-16.54,12.5c0.07,7.69,6.67,10,14.55,11.86c8.01,1.8,14.43,3.14,14.36,8.78
		C675.39,254.09,670.64,257.29,663.47,257.42z"/>
	<polygon class="st3" points="723.93,242.1 751.5,242.1 751.5,261.52 756.95,261.52 756.95,216.65 751.5,216.65 751.5,237.1 
		723.93,237.1 723.93,216.65 718.48,216.65 718.48,261.52 723.93,261.52 	"/>
	<path class="st3" d="M788.86,262.74c14.23,0,23.47-10.26,23.47-23.46c0-13.85-10.07-23.34-23.53-23.34
		c-13.4,0-23.59,9.42-23.59,23.34C765.2,252.87,774.95,262.74,788.86,262.74z M788.73,220.88c10.77,0,18.08,7.63,18.08,18.4
		c0,10.32-6.79,18.46-17.95,18.46c-10.96,0-18.14-7.76-18.14-18.46C770.71,228.31,778.15,220.88,788.73,220.88z"/>
	<polygon class="st3" points="851.15,256.52 826.02,256.52 826.02,216.65 820.57,216.65 820.57,261.52 851.15,261.52 	"/>
	<polygon class="st3" points="889.87,256.52 863.59,256.52 863.59,241.14 882.5,241.14 882.5,236.46 863.59,236.46 863.59,221.58 
		888.27,221.58 888.27,216.65 858.14,216.65 858.14,261.52 889.87,261.52 	"/>
	<path class="st3" d="M445.59,330.14c14.74,0,24.62-9.87,24.62-23.78c0-14.42-10.77-23.59-24.68-23.59
		c-14.04,0-24.81,9.3-24.81,23.72C420.71,320.72,431.22,330.14,445.59,330.14z M445.52,292.77c8.01,0,12.89,5.9,12.89,13.65
		c0,7.56-4.62,13.66-12.82,13.66c-8.14,0-13.08-5.96-13.08-13.66C432.51,298.53,437.64,292.77,445.52,292.77z"/>
	<path class="st3" d="M517.47,325.85l-3.98-9.17c-3.01,1.86-6.48,2.89-10.13,2.89c-7.44,0-14.49-4.23-14.49-13.34
		c0-9.04,7.12-13.53,14.49-13.65c3.91-0.07,7.44,1.09,10.19,2.63l3.66-9.3c-3.08-1.41-8.27-3.33-14.88-3.27
		c-13.98,0.13-25.26,9.42-25.26,23.66c0,15.13,12.63,23.34,25.84,23.27C509.01,329.57,513.94,327.7,517.47,325.85z"/>
	<polygon class="st3" points="560.04,293.6 560.04,283.66 526.31,283.66 526.31,328.54 561.45,328.54 561.45,318.6 537.98,318.6 
		537.98,310.52 554.65,310.52 554.65,301.48 537.98,301.48 537.98,293.6 	"/>
	<polygon class="st3" points="655.51,310.97 635.19,283.66 623.71,283.66 623.71,328.54 635.26,328.54 635.26,301.36 655.9,328.54 
		667.05,328.54 667.05,283.66 655.51,283.66 	"/>
	<path class="st3" d="M700.2,330.14c14.74,0,24.62-9.87,24.62-23.78c0-14.42-10.77-23.59-24.68-23.59
		c-14.04,0-24.81,9.3-24.81,23.72C675.33,320.72,685.84,330.14,700.2,330.14z M700.14,292.77c8.01,0,12.89,5.9,12.89,13.65
		c0,7.56-4.62,13.66-12.82,13.66c-8.14,0-13.08-5.96-13.08-13.66C687.12,298.53,692.25,292.77,700.14,292.77z"/>
	<path class="st3" d="M777.85,302.96h-20.58v9.23h10.07v5.58c-2.12,1.09-5.06,2.11-8.66,2.11c-8.21,0-15-5.32-15-13.59
		c0-8.21,6.73-13.79,14.94-13.98c4.42-0.13,8.21,1.35,10.96,3.08l3.46-9.55c-3.59-1.67-8.91-3.4-15.26-3.33
		c-15.26,0.06-25.77,10.58-25.84,23.91c0,13.91,11.22,23.46,26.22,23.46c9.04,0,15.83-3.4,19.68-5.96V302.96z"/>
	<path class="st3" d="M818.61,313.15c4.04-2.89,6.79-7.18,6.79-13.08c0-9.94-7.89-16.6-20.9-16.67c-5.39,0-10.84,0.13-16.41,0.26
		v44.88h11.67v-11.35c1.16,0.07,3.91,0.07,6.03,0c0.64,0,1.35-0.07,2.05-0.13l5.26,11.48h13.21L818.61,313.15z M805.53,307.19
		c-1.92,0.19-3.85,0.19-5.83,0.13v-14.04c1.73-0.07,3.53-0.07,5.45,0.06c4.49,0.32,8.59,2.44,8.59,6.86
		C813.74,303.99,811.11,306.68,805.53,307.19z"/>
	<path class="st3" d="M903.36,283.28c-2.37,0-9.17,0.13-14.17,0.38v44.88h11.73v-10.9c2.05,0,5.38-0.07,7.82-0.26
		c8.72-0.71,18.46-5.19,18.46-17.5C927.21,288.09,918.3,283.28,903.36,283.28z M907.08,307.57c-1.8,0.13-4.04,0.13-6.15,0.13v-14.74
		c2.44,0,4.29,0,6.09,0.07c5.19,0.32,8.53,3.08,8.53,7.44C915.54,304.82,912.14,307.19,907.08,307.57z"/>
	<polygon class="st3" points="966.52,301.55 947.42,301.55 947.42,283.66 935.75,283.66 935.75,328.54 947.42,328.54 947.42,311.49 
		966.52,311.49 966.52,328.54 978.19,328.54 978.19,283.66 966.52,283.66 	"/>
	<rect x="989" y="283.66" class="st3" width="11.41" height="44.88"/>
	<path class="st3" d="M1045.73,316.68c-3.01,1.86-6.48,2.89-10.13,2.89c-7.44,0-14.49-4.23-14.49-13.34
		c0-9.04,7.12-13.53,14.49-13.65c3.91-0.07,7.44,1.09,10.19,2.63l3.66-9.3c-3.08-1.41-8.27-3.33-14.88-3.27
		c-13.98,0.13-25.26,9.42-25.26,23.66c0,15.13,12.63,23.34,25.84,23.27c6.09,0,11.03-1.86,14.55-3.72L1045.73,316.68z"/>
	<path class="st3" d="M601.63,320.27l3.27,8.27h12.12l-19.49-44.88h-11.67l-19.36,44.88h12.18l3.21-8.27l0.51-1.33
		c6.1,1.83,12.61,1.82,18.71-0.01L601.63,320.27z M586.02,309.55l5.68-14.61l5.76,14.63C593.7,310.55,589.76,310.54,586.02,309.55z"
		/>
	<path class="st3" d="M850.92,283.53l-19.36,44.88h12.18l3.21-8.27l0.51-1.33c6.1,1.83,12.61,1.82,18.71-0.01l0.52,1.34l3.27,8.27
		h12.12l-19.49-44.88H850.92z M851.07,309.42l5.68-14.61l5.76,14.63C858.76,310.42,854.82,310.41,851.07,309.42z"/>
	<rect x="425.65" y="350.55" class="st3" width="5.32" height="44.88"/>
	<polygon class="st3" points="476.54,386.39 448.2,350.55 442.75,350.55 442.75,395.43 448.2,395.43 448.2,359.08 477.05,395.43 
		482.05,395.43 482.05,350.55 476.54,350.55 	"/>
	<path class="st3" d="M512.21,369.72c-7.05-1.6-13.08-2.44-13.14-7.57c-0.13-4.74,4.68-7.31,10.96-7.31c5.06,0,9.74,1.73,13.01,3.33
		l1.67-4.74c-3.2-1.54-8.52-3.53-14.68-3.53c-8.59,0-16.67,3.85-16.54,12.5c0.07,7.69,6.67,10,14.55,11.86
		c8.01,1.8,14.43,3.14,14.36,8.78c-0.06,4.94-4.81,8.14-11.99,8.27c-6.6,0.07-12.76-2.56-16.48-4.87l-2.05,4.55
		c3.78,2.31,10.77,5.45,18.91,5.32c9.55-0.13,17.25-4.68,17.18-13.59C527.91,374.46,521.18,371.84,512.21,369.72z"/>
	<polygon class="st3" points="534.01,355.49 550.68,355.49 550.68,395.43 556.13,395.43 556.13,355.49 572.8,355.49 572.8,350.55 
		534.01,350.55 	"/>
	<rect x="583.17" y="350.55" class="st3" width="5.32" height="44.88"/>
	<polygon class="st3" points="598.86,355.49 615.53,355.49 615.53,395.43 620.98,395.43 620.98,355.49 637.65,355.49 637.65,350.55 
		598.86,350.55 	"/>
	<path class="st3" d="M681.29,376c0,9.62-5.77,15.64-14.43,15.64c-8.65,0-14.36-5.96-14.36-15.58v-25.52h-5.45v25.39
		c0,13.65,9.23,20.71,19.94,20.71c11.03,0,19.74-7.44,19.74-20.84v-25.26h-5.45V376z"/>
	<polygon class="st3" points="696.21,355.49 712.88,355.49 712.88,395.43 718.33,395.43 718.33,355.49 734.99,355.49 734.99,350.55 
		696.21,350.55 	"/>
	<rect x="745.36" y="350.55" class="st3" width="5.32" height="44.88"/>
	<path class="st3" d="M783.29,349.84c-13.4,0-23.59,9.42-23.59,23.34c0,13.59,9.75,23.46,23.66,23.46
		c14.23,0,23.47-10.26,23.47-23.46C806.82,359.33,796.76,349.84,783.29,349.84z M783.36,391.65c-10.96,0-18.14-7.76-18.14-18.46
		c0-10.96,7.44-18.4,18.01-18.4c10.77,0,18.08,7.63,18.08,18.4C801.31,383.5,794.51,391.65,783.36,391.65z"/>
	<polygon class="st3" points="849.63,386.39 821.29,350.55 815.84,350.55 815.84,395.43 821.29,395.43 821.29,359.08 850.14,395.43 
		855.14,395.43 855.14,350.55 849.63,350.55 	"/>
</g>
</svg>
